<svg preserveAspectRatio="none" overflow="visible" style="display: block;" width="16" height="16.2222" viewBox="0 0 16 16.2222" fill="none" xmlns="http://www.w3.org/2000/svg">
<g id="flag-icon">
<g id="Rectangle 2">
</g>
<path id="&#239;&#128;&#164;" d="M3.55556 2.88889V3.5L5.41667 2.94444C6.5 2.63889 7.66667 2.72222 8.69444 3.22222C9.94444 3.86111 11.4167 3.86111 12.6389 3.22222L12.9722 3.05556C13.5556 2.77778 14.2222 3.19444 14.2222 3.83333V10.7222C14.2222 11.0833 14 11.4167 13.6389 11.5556L12.6111 11.9444C11.3611 12.4167 10 12.3333 8.80556 11.75C7.72222 11.1944 6.47222 11.0833 5.30556 11.4444L3.55556 11.9444V15.3333C3.55556 15.8333 3.16667 16.2222 2.66667 16.2222C2.16667 16.2222 1.77778 15.8333 1.77778 15.3333V2.88889C1.77778 2.38889 2.16667 2 2.66667 2C3.16667 2 3.55556 2.38889 3.55556 2.88889Z" fill="#D54309"/>
</g>
</svg>
